# xmcd CD database file
#
# Track frame offsets:
#	150
#	19080
#	32803
#	46475
#	64008
#	80440
#	96014
#	114251
#	131201
#	146842
#	165670
#	200374
#	215705
#	232257
#
# Disc length: 3242 seconds
#
# Revision: 0
# Processed by: cddbd v1.5PL3 Copyright (c) Steve Scherf et al.
# Submitted via: CDex 1.51
#
DISCID=cb0ca80e
DTITLE=SANSEVERINO - Le Tango Des Gens
DYEAR=1900
DGENRE=Jazz
TTITLE0=Frida
TTITLE1=Mal ô Mains
TTITLE2=Les embouteillages
TTITLE3=Les films de guerre
TTITLE4=Swing du nul
TTITLE5=Le tango de l'ennui
TTITLE6=André
TTITLE7=Le tango des gens
TTITLE8=Rouge
TTITLE9=Maigrir
TTITLE10=La Mer
TTITLE11=Maigrir II
TTITLE12=Un ticket
TTITLE13=Il Suffirait De Presque Rien
EXTD=
EXTT0=
EXTT1=
EXTT2=
EXTT3=
EXTT4=
EXTT5=
EXTT6=
EXTT7=
EXTT8=
EXTT9=
EXTT10=
EXTT11=
EXTT12=
EXTT13=
PLAYORDER=
